<?xml version="1.0" standalone="no"?><!DOCTYPE svg PUBLIC "-//W3C//DTD SVG 1.1//EN" "http://www.w3.org/Graphics/SVG/1.1/DTD/svg11.dtd"><svg t="1765453308423" class="icon" viewBox="0 0 1024 1024" version="1.1" xmlns="http://www.w3.org/2000/svg" p-id="1144" xmlns:xlink="http://www.w3.org/1999/xlink" width="200" height="200"><path d="M109.269333 279.552V744.533333L512 976.981333v-93.482666l-322.730667-184.874667V325.845333l0.128-0.085333z" fill="#2c2c2c" p-id="1145" data-spm-anchor-id="a313x.manage_type_mylikes.0.i1.2ab53a81HQOhOt" class=""></path><path d="M270.506667 372.608l-0.128 0.085333v278.912l241.578666 138.410667V512z" fill="#2c2c2c" p-id="1146" data-spm-anchor-id="a313x.manage_type_mylikes.0.i0.2ab53a81HQOhOt" class=""></path><path d="M512 47.018667L109.226667 279.552l80.085333 46.208L512 139.605333l322.858667 186.026667 79.872-46.037333v0.042666z" fill="#707070" p-id="1147" data-spm-anchor-id="a313x.manage_type_mylikes.0.i5.2ab53a81HQOhOt" class="selected"></path><path d="M512 233.258667L270.506667 372.608 512 512.042667l241.621333-139.52z" fill="#707070" p-id="1148" data-spm-anchor-id="a313x.manage_type_mylikes.0.i4.2ab53a81HQOhOt" class="selected"></path><path d="M512 512v0.085333zM753.664 372.522667l-241.706667 139.52zM834.858667 325.717333l79.786666-46.08-79.829333 46.037334z" fill="#0092CF" p-id="1149"></path><path d="M834.858667 325.717333l-0.042667-0.042666-81.194667 46.848h0.042667z" fill="#E8BFD8" p-id="1150"></path><path d="M914.688 744.576V279.637333l-79.829333 46.08-81.194667 46.805334L512 512.042667V790.058667l241.92-138.453334v-92.288l-162.304 92.330667v-93.354667l243.413333-138.538666v278.912L512 883.498667v93.482666z" fill="#515151" p-id="1151" data-spm-anchor-id="a313x.manage_type_mylikes.0.i2.2ab53a81HQOhOt" class=""></path></svg>